#!OML:ASF F:\VICON\USERDATA\INSTALL\rory3\rory3.ASF
:FULLY-SPECIFIED
:DEGREES
832
root -4.71655 17.7568 -4.76305 5.24096 69.1185 1.79128
lowerback 4.26061 2.15368 1.93178
upperback 1.51626 3.01165 2.50187
thorax -0.864655 1.51854 1.33599
lowerneck -8.53027 -15.9245 -15.8207
upperneck 26.1278 -19.2819 0.853871
head 11.6284 -10.0565 0.134666
rclavicle -6.42074e-014 5.56597e-015
rhumerus 10.1561 38.3699 -100.702
rradius 37.1163
rwrist 24.8966
rhand -22.4038 -7.30249
rfingers 7.12502
rthumb 4.01887 -37.2443
lclavicle -6.42074e-014 5.56597e-015
lhumerus 16.0014 12.8914 62.5794
lradius 22.3896
lwrist -19.5443
lhand -17.8165 32.947
lfingers 7.12502
lthumb 8.4474 62.758
rfemur -20.6255 -7.54299 9.44125
rtibia 30.6546
rfoot -20.8179 -20.885
rtoes 22.6762
lfemur -13.3573 -1.04826 -23.1421
ltibia 29.7495
lfoot -16.2204 -1.49125
ltoes 2.65756
833
root -4.72287 17.7553 -4.76201 5.18311 69.1189 1.71977
lowerback 4.33499 2.00731 1.86419
upperback 1.50687 2.81679 2.49805
thorax -0.916948 1.42084 1.37618
lowerneck -7.96977 -16.4017 -15.5645
upperneck 25.6041 -20.0005 0.507596
head 11.3107 -10.4117 -0.0645248
rclavicle 1.98785e-015 -1.27222e-014
rhumerus 10.132 38.6989 -100.666
rradius 37.1831
rwrist 24.8567
rhand -22.4052 -7.42813
rfingers 7.12502
rthumb 4.01745 -37.37
lclavicle 1.98785e-015 -1.27222e-014
lhumerus 15.8172 13.2276 62.302
lradius 22.223
lwrist -19.5285
lhand -17.8959 32.1251
lfingers 7.12502
lthumb 8.37078 61.9392
rfemur -20.7228 -7.64487 9.4581
rtibia 30.8163
rfoot -20.5305 -20.7899
rtoes 21.9987
lfemur -13.399 -1.17477 -23.0909
ltibia 29.767
lfoot -16.1758 -1.50722
ltoes 2.28837
834
root -4.72951 17.7525 -4.75967 5.12905 69.0332 1.64696
lowerback 4.43304 1.88226 1.74186
upperback 1.48904 2.65048 2.55596
thorax -0.996451 1.33755 1.50829
lowerneck -7.45567 -16.7643 -15.5987
upperneck 25.1294 -20.5652 0.426021
head 11.0757 -10.6923 -0.116591
rclavicle -1.35174e-014 1.11319e-014
rhumerus 10.014 38.8958 -100.699
rradius 37.2002
rwrist 25.1112
rhand -22.321 -7.58632
rfingers 7.12502
rthumb 4.09877 -37.5266
lclavicle -1.35174e-014 1.11319e-014
lhumerus 15.5341 13.4166 62.0975
lradius 22.1977
lwrist -19.2186
lhand -18.1301 32.3374
lfingers 7.12502
lthumb 8.14474 62.1604
rfemur -20.8828 -7.95001 9.51013
rtibia 30.9676
rfoot -19.8534 -20.6135
rtoes 20.7914
lfemur -13.4356 -1.33084 -23.0457
ltibia 29.7844
lfoot -16.2245 -1.33212
ltoes 1.70319
835
root -4.73481 17.753 -4.75898 5.08706 68.9066 1.5514
lowerback 4.49838 1.77043 1.64218
upperback 1.45546 2.50247 2.63845
thorax -1.07326 1.26361 1.65353
lowerneck -6.98377 -17.1 -15.7993
upperneck 24.7188 -21.0886 0.464319
head 10.9072 -10.9537 -0.109567
rclavicle -5.76476e-015 1.43125e-014
rhumerus 9.83552 38.9063 -100.797
rradius 37.1417
rwrist 25.5521
rhand -22.1448 -7.2748
rfingers 7.12502
rthumb 4.2689 -37.2118
lclavicle -5.76476e-015 1.43125e-014
lhumerus 15.2135 13.8022 62.018
lradius 22.1509
lwrist -19.1872
lhand -18.3302 32.4372
lfingers 7.12502
lthumb 7.95168 62.2676
rfemur -21.0882 -8.2644 9.5776
rtibia 31.1032
rfoot -19.1383 -20.4263
rtoes 19.7231
lfemur -13.5033 -1.4957 -22.9803
ltibia 29.8003
lfoot -16.2805 -1.16664
ltoes 1.85314
836
root -4.73998 17.7558 -4.75904 4.9581 68.6734 1.32338
lowerback 4.43664 1.70015 1.58902
upperback 1.47505 2.40605 2.7166
thorax -1.02253 1.21604 1.77116
lowerneck -6.66012 -17.445 -15.9167
upperneck 24.3433 -21.6013 0.442737
head 10.762 -11.2072 -0.143479
rclavicle 4.6118e-014 2.22639e-014
rhumerus 9.86906 39.207 -100.6
rradius 37.1577
rwrist 25.4987
rhand -22.1601 -7.01995
rfingers 7.12502
rthumb 4.25415 -36.9572
lclavicle 4.6118e-014 2.22639e-014
lhumerus 15.0174 14.2063 62.0011
lradius 22.0784
lwrist -19.3397
lhand -18.5113 32.6249
lfingers 7.12502
lthumb 7.77682 62.4618
rfemur -21.3574 -8.47942 9.71168
rtibia 31.2186
rfoot -18.5002 -20.248
rtoes 19.238
lfemur -13.6065 -1.50284 -22.8643
ltibia 29.8228
lfoot -16.2562 -1.11464
ltoes 2.46704
837
root -4.74376 17.7597 -4.75634 4.57816 68.3502 0.864748
lowerback 4.39297 1.63098 1.56635
upperback 1.51529 2.31322 2.8137
thorax -0.959879 1.17048 1.89074
lowerneck -6.46742 -17.6909 -15.92
upperneck 24.0022 -21.9688 0.405252
head 10.6253 -11.3854 -0.181754
rclavicle 1.5704e-014 3.49861e-014
rhumerus 9.9563 39.7414 -100.349
rradius 37.205
rwrist 25.2841
rhand -22.3045 -7.20965
rfingers 7.12502
rthumb 4.11474 -37.1497
lclavicle 1.5704e-014 3.49861e-014
lhumerus 14.7339 14.6038 61.8827
lradius 22.134
lwrist -19.3397
lhand -18.4027 32.6827
lfingers 7.12502
lthumb 7.88167 62.5158
rfemur -21.6105 -8.64824 9.95187
rtibia 31.3242
rfoot -17.9068 -20.0788
rtoes 18.7076
lfemur -13.6445 -1.43081 -22.6611
ltibia 29.853
lfoot -16.3085 -0.955439
ltoes 2.59522
